<svg xmlns="http://www.w3.org/2000/svg" width="230.715" height="166.757"><defs><style>.a{opacity:.75}.b{fill:#f2f2f2}.c{opacity:.03}.d{fill:#36334a}.e{opacity:.1}.f{fill:#3f3d56}.g,.i{fill:#eb5557}.h,.i{opacity:.2}.j{fill:#ff6584}.k{fill:#fbbebe}.l{fill:#696880}</style></defs><g class="a"><path class="b" d="M154.435 46.66h-30.286v-6.55a1.567 1.567 0 0 0-1.567-1.567h-8.894v-6.978a.986.986 0 0 0-.986-.986h-11.456a.986.986 0 0 0-.986.986v6.98H89.801a1.567 1.567 0 0 0-1.567 1.567v6.55h-28.88a.319.319 0 0 0-.316.319v86.958a.319.319 0 0 0 .316.319h19.197a.319.319 0 0 0 .319-.319v-11.7a.321.321 0 0 1 .319-.319h8.108a.321.321 0 0 1 .319.319v11.7a.318.318 0 0 0 .316.319h37.927a.321.321 0 0 0 .319-.319v-11.7a.319.319 0 0 1 .316-.319h8.107a.319.319 0 0 1 .319.319v11.7a.321.321 0 0 0 .319.319h19.193a.321.321 0 0 0 .319-.319v-86.96a.321.321 0 0 0-.314-.319zm-79 71.2a.316.316 0 0 1-.316.316H63.262a.316.316 0 0 1-.319-.316v-4.037a.319.319 0 0 1 .319-.319h11.862a.319.319 0 0 1 .316.319zm0-10.463a.316.316 0 0 1-.316.319H63.262a.316.316 0 0 1-.319-.319v-4.047a.316.316 0 0 1 .319-.319h11.862a.316.316 0 0 1 .316.319zm0-10.46a.319.319 0 0 1-.316.319H63.262a.319.319 0 0 1-.319-.319v-4.049a.319.319 0 0 1 .319-.319h11.862a.319.319 0 0 1 .316.319zm0-10.463a.316.316 0 0 1-.316.319H63.262a.316.316 0 0 1-.319-.319v-4.035a.316.316 0 0 1 .319-.319h11.862a.316.316 0 0 1 .316.319zm0-10.46a.319.319 0 0 1-.316.319H63.262a.319.319 0 0 1-.319-.319v-4.049a.316.316 0 0 1 .319-.316h11.862a.316.316 0 0 1 .316.316zm0-10.46a.316.316 0 0 1-.316.316H63.262a.316.316 0 0 1-.319-.316v-4.049a.319.319 0 0 1 .319-.319h11.862a.319.319 0 0 1 .316.319zm0-10.463a.316.316 0 0 1-.316.319H63.262a.316.316 0 0 1-.319-.319v-4.035a.316.316 0 0 1 .319-.319h11.862a.316.316 0 0 1 .316.319zm28.106 62.767a.316.316 0 0 1-.319.316H91.366a.319.319 0 0 1-.319-.316v-4.035a.321.321 0 0 1 .319-.319h11.855a.319.319 0 0 1 .319.319zm0-10.463a.316.316 0 0 1-.319.319H91.366a.319.319 0 0 1-.319-.319v-4.044a.319.319 0 0 1 .319-.319h11.855a.316.316 0 0 1 .319.319zm0-10.46a.319.319 0 0 1-.319.319H91.366a.321.321 0 0 1-.319-.319v-4.047a.321.321 0 0 1 .319-.319h11.855a.319.319 0 0 1 .319.319zm0-10.463a.316.316 0 0 1-.319.319H91.366a.319.319 0 0 1-.319-.319v-4.033a.319.319 0 0 1 .319-.319h11.855a.316.316 0 0 1 .319.319zm0-10.46a.319.319 0 0 1-.319.319H91.366a.321.321 0 0 1-.319-.319v-4.047a.319.319 0 0 1 .319-.316h11.855a.316.316 0 0 1 .319.316zm0-10.46a.316.316 0 0 1-.319.316H91.366a.319.319 0 0 1-.319-.316v-4.047a.321.321 0 0 1 .319-.319h11.855a.319.319 0 0 1 .319.319zm0-10.463a.316.316 0 0 1-.319.319H91.366a.319.319 0 0 1-.319-.319v-4.033a.319.319 0 0 1 .319-.319h11.855a.316.316 0 0 1 .319.319zm19.205 62.767a.316.316 0 0 1-.319.316h-11.856a.319.319 0 0 1-.319-.316v-4.033a.321.321 0 0 1 .319-.319h11.855a.319.319 0 0 1 .319.319zm0-10.463a.316.316 0 0 1-.319.319h-11.856a.319.319 0 0 1-.319-.319v-4.042a.319.319 0 0 1 .319-.319h11.855a.316.316 0 0 1 .319.319zm0-10.46a.319.319 0 0 1-.319.319h-11.856a.321.321 0 0 1-.319-.319v-4.044a.321.321 0 0 1 .319-.319h11.855a.319.319 0 0 1 .319.319zm0-10.463a.316.316 0 0 1-.319.319h-11.856a.319.319 0 0 1-.319-.319v-4.031a.319.319 0 0 1 .319-.319h11.855a.316.316 0 0 1 .319.319zm0-10.46a.319.319 0 0 1-.319.319h-11.856a.321.321 0 0 1-.319-.319v-4.044a.319.319 0 0 1 .319-.316h11.855a.316.316 0 0 1 .319.316zm0-10.46a.316.316 0 0 1-.319.316h-11.856a.319.319 0 0 1-.319-.316v-4.044a.321.321 0 0 1 .319-.319h11.855a.319.319 0 0 1 .319.319zm0-10.463a.316.316 0 0 1-.319.319h-11.856a.319.319 0 0 1-.319-.319v-4.03a.319.319 0 0 1 .319-.319h11.855a.316.316 0 0 1 .319.319zm28.105 62.762a.319.319 0 0 1-.319.316h-11.855a.316.316 0 0 1-.319-.316v-4.03a.319.319 0 0 1 .319-.319h11.855a.321.321 0 0 1 .319.319zm0-10.463a.319.319 0 0 1-.319.319h-11.855a.316.316 0 0 1-.319-.319v-4.04a.316.316 0 0 1 .319-.319h11.855a.319.319 0 0 1 .319.319zm0-10.46a.321.321 0 0 1-.319.319h-11.855a.319.319 0 0 1-.319-.319v-4.042a.319.319 0 0 1 .319-.319h11.855a.321.321 0 0 1 .319.319zm0-10.463a.319.319 0 0 1-.319.319h-11.855a.316.316 0 0 1-.314-.311v-4.032a.316.316 0 0 1 .319-.319h11.855a.319.319 0 0 1 .319.319zm0-10.46a.321.321 0 0 1-.319.319h-11.855a.319.319 0 0 1-.319-.319v-4.042a.316.316 0 0 1 .319-.316h11.855a.318.318 0 0 1 .319.316zm0-10.46a.319.319 0 0 1-.319.316h-11.855a.316.316 0 0 1-.319-.316v-4.042a.319.319 0 0 1 .319-.319h11.855a.321.321 0 0 1 .319.319zm0-10.463a.319.319 0 0 1-.319.319h-11.855a.316.316 0 0 1-.314-.311v-4.035a.316.316 0 0 1 .319-.319h11.855a.319.319 0 0 1 .319.319z"/><path class="b" d="M63.038 10.44l-3.662 2.322 2.223-4.044a3.622 3.622 0 0 0-2.213-.79h-.059a4.268 4.268 0 0 1-.76-.057l-1.241.786.531-.967a4.4 4.4 0 0 1-2.171-1.652l-2.22 1.416 1.4-2.551a6.5 6.5 0 0 0-4.977-2.515 6.821 6.821 0 0 0-5.7 3.514 4.247 4.247 0 0 1-3.775 2.029h-.123c-2.551 0-4.618 2.893-4.618 6.458S37.75 20.85 40.3 20.85a3.473 3.473 0 0 0 1.607-.4 6.657 6.657 0 0 1 5.59-.109 5.819 5.819 0 0 0 4.752 0 6.661 6.661 0 0 1 5.538.109 3.473 3.473 0 0 0 1.593.4c2.551 0 4.618-2.893 4.618-6.461a8.188 8.188 0 0 0-.96-3.949z"/><path class="c" d="M56.137 19.889a6.817 6.817 0 0 0-3.957.429 5.826 5.826 0 0 1-4.75 0 6.673 6.673 0 0 0-5.59.109 3.447 3.447 0 0 1-1.609.4c-2.265 0-4.151-2.282-4.542-5.293a4.349 4.349 0 0 0 1.129-1.218 6.363 6.363 0 0 1 11.359-.038 4.361 4.361 0 0 0 3.764 2.067H52c1.818-.012 3.377 1.435 4.137 3.544z"/><path class="b" d="M192.107 4.019l-1.831 1.159 1.109-2.018a1.809 1.809 0 0 0-1.1-.394h-.028a2.029 2.029 0 0 1-.38-.028l-.618.394.264-.472a2.218 2.218 0 0 1-1.083-.821l-1.107.708.708-1.272a3.235 3.235 0 0 0-2.48-1.274 3.38 3.38 0 0 0-2.832 1.753 2.124 2.124 0 0 1-1.888 1.012h-.061c-1.272 0-2.3 1.442-2.3 3.221s1.031 3.221 2.3 3.221a1.727 1.727 0 0 0 .8-.2 3.322 3.322 0 0 1 2.787-.054 2.909 2.909 0 0 0 2.371 0 3.33 3.33 0 0 1 2.763.054 1.72 1.72 0 0 0 .793.2c1.272 0 2.3-1.442 2.3-3.221a4.1 4.1 0 0 0-.488-1.963z"/><path class="c" d="M188.664 8.731a3.426 3.426 0 0 0-1.975.215 2.9 2.9 0 0 1-1.18.25 2.928 2.928 0 0 1-1.18-.255 3.327 3.327 0 0 0-2.789.054 1.721 1.721 0 0 1-.8.2c-1.13 0-2.069-1.137-2.265-2.64a2.185 2.185 0 0 0 .566-.609 3.171 3.171 0 0 1 5.663-.019 2.175 2.175 0 0 0 1.888 1.031h.031a2.367 2.367 0 0 1 2.041 1.773z"/><path class="b" d="M146.256 25.239l-2.147 1.362 1.3-2.36a2.124 2.124 0 0 0-1.3-.472h-.035a2.549 2.549 0 0 1-.446-.033l-.727.472.311-.569a2.6 2.6 0 0 1-1.274-.965l-1.3.826.824-1.5a3.811 3.811 0 0 0-2.919-1.477 4 4 0 0 0-3.341 2.062 2.492 2.492 0 0 1-2.209 1.18h-.073c-1.5 0-2.706 1.7-2.706 3.775s1.211 3.787 2.706 3.787a2.02 2.02 0 0 0 .944-.236 3.908 3.908 0 0 1 3.278-.064 3.426 3.426 0 0 0 2.787 0 3.912 3.912 0 0 1 3.249.064 2.048 2.048 0 0 0 .944.236c1.5 0 2.709-1.694 2.709-3.787a4.814 4.814 0 0 0-.575-2.301z"/><path class="c" d="M142.209 30.782a4.011 4.011 0 0 0-2.322.252 3.426 3.426 0 0 1-2.787 0 3.908 3.908 0 0 0-3.278.064 2.027 2.027 0 0 1-.944.236c-1.328 0-2.435-1.338-2.664-3.1a2.537 2.537 0 0 0 .663-.708 3.738 3.738 0 0 1 6.668-.024 2.553 2.553 0 0 0 2.206 1.213h.026a2.745 2.745 0 0 1 2.432 2.067z"/><path class="d" d="M223.518 134.312c0 .406 0 .812-.026 1.213a28.683 28.683 0 0 1-.562 4.646c-1.55 7.577-6.027 13.467-11.65 15.206a11.63 11.63 0 0 1-3.455.526c-8.667 0-15.692-9.675-15.692-21.591s7.025-21.591 15.692-21.591c8.129 0 14.816 8.509 15.612 19.408.056.718.081 1.442.081 2.183z"/><path class="e" d="M223.493 135.528a28.678 28.678 0 0 1-.562 4.646c-1.55 7.577-6.027 13.467-11.65 15.206-4.354-2-7.584-9.512-7.584-18.469 0-10.491 4.436-19 9.911-19 4.594 0 8.459 6 9.58 14.137.156 1.12.258 2.286.305 3.48z"/><path class="f" d="M144.706 86.529s42.474-8.731 64.891-.708c0 0 3.3 1.652 0 4.483 0 0 3.124 3.3-2.331 4.483l-21.673 1.333-40.886-4.165z"/><path class="e" d="M152.139 87.626s36.365-7.475 55.558-.606c0 0 2.832 1.416 0 3.839 0 0 2.674 2.832-2 3.839l-18.556 1.14-35.006-3.561z"/><path class="g" d="M193.551 100.686l-2.832-5.663s1.241-5.729-8.849-7.414a6.5 6.5 0 0 0-12.228-.184 95.875 95.875 0 0 0-4.644.519l-2.308 12.374-.288-.576s1.465-6.768-11.742-7.756a4.913 4.913 0 0 0 1.123-3.1c0-3-2.8-5.427-6.253-5.427s-6.253 2.428-6.253 5.427a4.955 4.955 0 0 0 1.312 3.322q-1.852.177-3.908.453l-2.6 13.922 12.034 1.652 19.113-2.832-1.692-3.386 10.895 1.5z"/><path class="h" d="M193.551 100.686l-2.832-5.663s1.241-5.729-8.849-7.414a6.5 6.5 0 0 0-12.228-.184 95.875 95.875 0 0 0-4.644.519l-2.308 12.374-.288-.576s1.465-6.768-11.742-7.756a4.913 4.913 0 0 0 1.123-3.1c0-3-2.8-5.427-6.253-5.427s-6.253 2.428-6.253 5.427a4.955 4.955 0 0 0 1.312 3.322q-1.852.177-3.908.453l-2.6 13.922 12.034 1.652 19.113-2.832-1.692-3.386 10.895 1.5z"/><path class="g" d="M152.961 88.153s-1.888-10.59 6.843-10.826 5.9 15.338 5.9 15.338 6.607 1.416 7.079 4.011-22.889 3.3-22.889 3.3z"/><path class="d" d="M137.627 144.104c0 12.506-9.3 22.653-20.765 22.653s-20.765-10.147-20.765-22.653 9.413-24.658 20.883-24.658 20.647 12.15 20.647 24.658z"/><ellipse class="e" cx="16.518" cy="19.111" rx="16.518" ry="19.111" transform="translate(100.345 125.937)"/><ellipse class="d" cx="20.765" cy="22.653" rx="20.765" ry="22.653" transform="translate(4.778 119.326)"/><path class="d" d="M60.939 87.944s-9.675.472-9.2 5.663 8.259 1.416 8.259 1.416z"/><path class="f" d="M141.431 96.593l3.983-26.582s.944-3.3-11.8-3.3c0 0-40.822-2.6-51.2 1.652 0 0-12.034 4.483-28.788 27.608-.003-.004 86.153 2.038 87.805.622z"/><path class="d" d="M139.987 68.831l-7.315 29.024-4.587-.111-21.709-.529-48.418-1.18c-.134-2.294 22.794-26.025 22.794-26.025z"/><path class="i" d="M106.383 97.215l1.977-7.645s-1.888-10.592 6.843-10.828 5.9 15.338 5.9 15.338 6.017 1.291 6.975 3.665z"/><path class="f" d="M223.637 132.66c-1.416-13.686-10.267-16.635-10.267-16.635-8.495-.472-14.158 31.855-14.158 31.855l-65.363 5.9s2.242-27.49-13.568-31.973-19.939 27.726-20.647 32.209-95.33-.472-97.926-2.36-1.649-20.057-.938-21.47 2.6-7.787 2.6-7.787a13.073 13.073 0 0 1 1.331-4.774c.425-.944.793-1.6.793-1.6 2.051-11.628 12.7-14.443 13.412-14.63h.038c2.832-2.832 29.024-4.719 29.024-4.719l9.902-1.89 80.575 1.583 3.429.068 40.964-1.97 27.7-1.333c6.371 0 9.675 16.046 9.675 16.046 5.901 14.16 3.424 23.48 3.424 23.48z"/><ellipse class="e" cx="12.148" cy="7.605" rx="12.148" ry="7.605" transform="rotate(-21.92 318.838 -136.082)"/><ellipse class="b" cx="12.148" cy="7.605" rx="12.148" ry="7.605" transform="rotate(-21.92 316.163 -135.338)"/><path class="e" d="M19.37 101.876a18.89 18.89 0 0 1-3.377 9.026c-3.367 5.078-7.985 8.068-10.828 7.192.425-.944.793-1.6.793-1.6 2.05-11.626 12.697-14.441 13.412-14.618z"/><path class="b" d="M18.662 101.404a18.89 18.89 0 0 1-3.377 9.026c-3.367 5.078-7.985 8.068-10.828 7.192.425-.944.793-1.6.793-1.6 2.05-11.626 12.697-14.441 13.412-14.618z"/><path class="d" d="M51.735 108.472H33.094l-.944-2.6H54.8z"/><path class="d" transform="translate(16.813 127.584)" d="M0 0H30.676V8.967H0z"/><circle class="e" cx="4.247" cy="4.247" r="4.247" transform="translate(76.276 136.787)"/><circle class="b" cx="4.247" cy="4.247" r="4.247" transform="translate(75.804 136.079)"/><ellipse class="e" cx="2.124" cy="4.483" rx="2.124" ry="4.483" transform="translate(1.239 133.248)"/><ellipse class="b" cx="2.124" cy="4.483" rx="2.124" ry="4.483" transform="translate(.531 133.012)"/><path class="d" d="M189.776 118.62c-2.6 8.023-2.832 20.529-2.832 20.529l-.944 3.3-46.013 5.191s.236-23.125.944-33.979a44.059 44.059 0 0 0-2.485-17.292l3.429.068 40.963-1.968c6.843 4.8 9.267 16.947 6.938 24.151z"/><path class="b" d="M179.285 104.155a1.158 1.158 0 0 0-1.066 1.343.828.828 0 0 0 .472.616c.762.38 5.835-.472 7.759-.812a1.305 1.305 0 0 0 1.09-1.163c.024-.335-.1-.621-.59-.621z"/><path class="d" d="M138.335 95.495s1.18 5.191 6.843 3.539l1.888-7.315-3.775-2.124z"/><path class="d" d="M145.27 84.955c2.6-1.539 6.713-2.884 10.786.347a4.814 4.814 0 0 1 1.39 5.791c-1.333 2.886-4.5 6.017-11.886 2.268a4.766 4.766 0 0 1-1.8-1.59l-.038-.057a4.79 4.79 0 0 1 1.546-6.758z"/><circle class="b" cx="4.719" cy="4.719" r="4.719" transform="translate(112.261 139.265)"/><ellipse class="b" cx="2.596" cy="4.719" rx="2.596" ry="4.719" transform="translate(211.838 130.77)"/><rect class="d" width="6.135" height="8.259" rx="3.068" transform="translate(113.795 129.472)"/><path class="d" d="M214.434 120.387a1.652 1.652 0 0 1 1.652 1.652v3.775a2.832 2.832 0 0 1-2.832 2.832 1.652 1.652 0 0 1-1.652-1.652v-3.776a2.832 2.832 0 0 1 2.832-2.831z"/><path class="d" d="M214.434 150.594a2.831 2.831 0 0 1-2.832-2.832v-2.6a2.832 2.832 0 0 1 2.832-2.832c1.557 0 1.416 1.274 1.416 2.832v2.6c-.003 1.558.146 2.832-1.416 2.832z"/><path class="d" d="M207.355 131.242a2.832 2.832 0 0 1 2.832 2.832v3.539a1.888 1.888 0 0 1-1.888 1.888 2.832 2.832 0 0 1-2.832-2.832v-3.539a1.888 1.888 0 0 1 1.888-1.888z"/><path class="d" d="M223.519 134.312c0 .406 0 .812-.026 1.213a28.677 28.677 0 0 1-.562 4.646 2.877 2.877 0 0 1-.472.04 2.832 2.832 0 0 1-2.832-2.832v-2.6a2.832 2.832 0 0 1 2.832-2.832 2.764 2.764 0 0 1 .731.1c.085.024.17.05.25.08.053.719.079 1.448.079 2.185z"/><rect class="d" width="6.135" height="8.259" rx="3.068" transform="translate(125.711 139.501)"/><rect class="d" width="6.135" height="8.259" rx="3.068" transform="translate(102.586 139.501)"/><rect class="d" width="6.135" height="8.259" rx="3.068" transform="translate(113.913 151.771)"/><path class="j" d="M199.393 48.611a3.878 3.878 0 0 1-.236 1.319 3.917 3.917 0 0 1-7.336.1 3.85 3.85 0 0 1-.269-1.416 3.917 3.917 0 1 1 7.834 0z"/><path class="j" d="M192.347 49.589a3.917 3.917 0 0 1 1.524-5.326 3.877 3.877 0 0 1 1.416-.472 3.917 3.917 0 1 0 .33 7.8 3.915 3.915 0 0 1-3.27-2.002z"/><path class="j" transform="translate(190.58 54.067)" d="M0 0H10.493V16.369H0z"/><path class="e" transform="translate(190.816 53.595)" d="M0 0H10.493V16.369H0z"/><path class="k" d="M173.994 113.455s-1.118 3.068-3.776 3.5a18.491 18.491 0 0 0-4.191 1.114l6.3 4.056 3.358-.42s.418-4.337 1.817-5.316-3.508-2.934-3.508-2.934z"/><path class="k" d="M219.469 113.455s1.119 3.068 3.776 3.5a18.324 18.324 0 0 1 4.2 1.121l-6.3 4.056-3.358-.42s-.418-4.337-1.817-5.316 3.499-2.941 3.499-2.941z"/><path class="l" d="M188.831 86.314a4.888 4.888 0 0 0-2.239 2.518 9.768 9.768 0 0 0-4.757 3.639s-2.1 2.237-2.379 3.358-3.5 7.843-3.5 7.843-3.216 10.491-4.9 11.612c0 0 5.316-1.121 6.3 4.2 0 0 1.26 0 2.659-4.9a63.2 63.2 0 0 1 4.758-10.91s1.121-4.2 2.1-4.9 2.518-3.917 3.917-3.079 10.633-.139 10.633-.139 5.456 2.518 5.595 4.2 1.121 1.817 1.26 3.216 5.316 12.452 5.316 12.452.979 3.068 1.258 3.775c0 0 3.079-7.414 7.136-3.219a9.6 9.6 0 0 0-1.4-4.483c-1.26-1.685-6.716-14.83-6.716-14.83a8.606 8.606 0 0 0-1.118-2.518c-.559-.559-4.9-5.035-6.432-5.035 0 0-.84-2.1-1.819-2.379z"/><path class="l" d="M176.241 120.73a6.817 6.817 0 0 1-6.661-.9 13.279 13.279 0 0 0-2.971-1.72c-1.482-.6-3.259-1.045-3.8-.04-.979 1.817 11.893 6.3 11.893 6.3a3.873 3.873 0 0 0 1.539-3.64z"/><path class="l" d="M217.227 120.73a6.817 6.817 0 0 0 6.661-.9 13.277 13.277 0 0 1 2.971-1.72c1.482-.6 3.259-1.045 3.8-.04.979 1.817-11.893 6.3-11.893 6.3a3.873 3.873 0 0 1-1.539-3.64z"/><path class="k" d="M193.405 63.303a1.66 1.66 0 0 1-.628 1.272 3.46 3.46 0 0 1-1.161.276 2.7 2.7 0 0 0-1.848 1.6 4.134 4.134 0 0 0-.175 2.489 9.175 9.175 0 0 0 .356 1.2 11.327 11.327 0 0 0 1.673 3.278 13.924 13.924 0 0 0 2.194 2.067 3.787 3.787 0 0 0 2.9 1.18 2.822 2.822 0 0 0 1.555-.222c.708-.408.92-1.312 1.3-2.034.328-.616.814-1.135 1.118-1.763a7.023 7.023 0 0 0 .472-1.536l.654-2.9a4.1 4.1 0 0 0-.142-3.145.5.5 0 0 0-.175-.182.649.649 0 0 0-.356-.038 3.851 3.851 0 0 1-2.159-.493.854.854 0 0 1-.271-.212 1.068 1.068 0 0 1-.168-.5 5.266 5.266 0 0 0-.3-1.052.708.708 0 0 0-.205-.314.734.734 0 0 0-.33-.111 27.016 27.016 0 0 0-3.051-.321c-.337-.014-.842-.149-1.071.146s-.144.961-.182 1.315z"/><path class="e" d="M193.405 63.303a1.66 1.66 0 0 1-.628 1.272 3.46 3.46 0 0 1-1.161.276 2.7 2.7 0 0 0-1.848 1.6 4.134 4.134 0 0 0-.175 2.489 9.175 9.175 0 0 0 .356 1.2 11.327 11.327 0 0 0 1.673 3.278 13.924 13.924 0 0 0 2.194 2.067 3.787 3.787 0 0 0 2.9 1.18 2.822 2.822 0 0 0 1.555-.222c.708-.408.92-1.312 1.3-2.034.328-.616.814-1.135 1.118-1.763a7.023 7.023 0 0 0 .472-1.536l.654-2.9a4.1 4.1 0 0 0-.142-3.145.5.5 0 0 0-.175-.182.649.649 0 0 0-.356-.038 3.851 3.851 0 0 1-2.159-.493.854.854 0 0 1-.271-.212 1.068 1.068 0 0 1-.168-.5 5.266 5.266 0 0 0-.3-1.052.708.708 0 0 0-.205-.314.734.734 0 0 0-.33-.111 27.016 27.016 0 0 0-3.051-.321c-.337-.014-.842-.149-1.071.146s-.144.961-.182 1.315z"/><path class="b" d="M191.51 64.976a6.473 6.473 0 0 0-1.685-.267 4.215 4.215 0 0 0-3.573 1.536 3.627 3.627 0 0 0-.54 2.7 5.6 5.6 0 0 0 1.227 2.518 7.57 7.57 0 0 1 .944 1.236 6.552 6.552 0 0 1 .472 2.36c.236 1.914 1.052 3.716 1.378 5.618s.042 4.111-1.461 5.323c-.253.2-.557.415-.578.739-.035.517.637.739 1.154.786a13.153 13.153 0 0 0 4.632-.106c.623-.165 1.22-.422 1.852-.54 1.607-.3 3.221.314 4.826.611a21.67 21.67 0 0 0 3.518.286 1.889 1.889 0 0 0 .812-.106.649.649 0 0 0 .411-.647 1.094 1.094 0 0 0-.278-.472 7.7 7.7 0 0 1-1.281-3.608l-.731-4.283c-.4-2.284-.769-4.764.311-6.817.779-1.475 2.209-2.513 3.03-3.964a1.925 1.925 0 0 0-1.083-3.046 5.477 5.477 0 0 0-4.1-.149 16.568 16.568 0 0 1-.406 3.068l-.286 1.652a21.02 21.02 0 0 1-.637 2.879 3.117 3.117 0 0 1-.512 1.043 2.7 2.7 0 0 1-.9.658 5.371 5.371 0 0 1-2.4.545 3.142 3.142 0 0 1-1.057-.16 4.516 4.516 0 0 1-1.456-1.026 2.381 2.381 0 0 1-.385-.415 2.5 2.5 0 0 1-.262-.63 12.818 12.818 0 0 1-.448-1.765c-.073-.458-.094-.923-.127-1.385a33.671 33.671 0 0 0-.381-4.172z"/><path class="k" d="M190.086 92.05s-.559 7.414 2.938 8.674.42-6.156.42-6.156l-1.118-2.239z"/><path class="k" d="M201.982 92.05s.559 7.414-2.938 8.674-.42-6.156-.42-6.156l1.119-2.239z"/><path class="e" d="M187.013 67.288l-1.119 1.819s.979 6.3 1.119 7.414a14.583 14.583 0 0 0 .559 2.374s.139 3.358.139 4.616a14.089 14.089 0 0 0 .708 3.358 15.222 15.222 0 0 0 .708 3.5 86.92 86.92 0 0 1 1.121 3.358s.708-1.959 3.5.979a1.7 1.7 0 0 0 0-2.379 37.015 37.015 0 0 1-.84-5.734c0-1.959-1.539-11.326-1.539-11.326s-.999-10.639-4.356-7.979z"/><path class="b" d="M186.737 67.148l-1.118 1.817s.979 6.3 1.118 7.416a14.7 14.7 0 0 0 .562 2.376s.146 3.358.146 4.62a14.031 14.031 0 0 0 .708 3.358 15.293 15.293 0 0 0 .708 3.5 82.49 82.49 0 0 1 1.118 3.358s.708-1.959 3.5.979a1.694 1.694 0 0 0 0-2.379 37.007 37.007 0 0 1-.84-5.736c0-1.961-1.538-11.326-1.538-11.326s-1.011-10.631-4.364-7.983z"/><path class="e" d="M205.198 66.167l.708.833a25.707 25.707 0 0 1-.993 10.779l-.559 5.458s-.979 4.615-1.121 5.736-.139 1.258-.418 1.678a.538.538 0 0 0 0 .708l-.84 3.079s-1.26-1.538-3.776.42a2.221 2.221 0 0 1-.139-2.1c.569-.979.559-1.4.42-1.678s.559-1.68.559-1.959.979-6.716.979-6.716.42-6.3.84-8.393a39.264 39.264 0 0 0 .208-6.194 2.371 2.371 0 0 1 4.011-1.767 1.093 1.093 0 0 1 .121.116z"/><path class="b" d="M205.614 65.888l.708.833a25.752 25.752 0 0 1-.993 10.779l-.559 5.456s-.979 4.618-1.121 5.736-.139 1.26-.42 1.678a.545.545 0 0 0 0 .708l-.838 3.068s-1.26-1.539-3.776.42a2.215 2.215 0 0 1-.139-2.1c.569-.979.559-1.4.418-1.68s.562-1.678.562-1.959.979-6.716.979-6.716.42-6.3.838-8.393.142-8.393.142-8.393a3.236 3.236 0 0 1 4.199.563z"/><circle class="k" cx="5.597" cy="5.597" r="5.597" transform="translate(190.649 52.736)"/><path class="e" d="M199.165 49.931a3.917 3.917 0 0 1-7.336.1 6.943 6.943 0 0 1 4.417-.094 3.959 3.959 0 0 1 2.919-.006z"/><path class="j" d="M196.246 50.221s-10.772-3.775-8.115 14.55c0 0 2.378 1.538 4.2.559 0 0-1.26-12.742 3.636-12.171s4.059 11.89 4.059 11.89 2.8.84 3.636-.708-.276-16.64-7.416-14.12z"/><path class="e" d="M195.965 52.319c-3.36-.385-3.82 5.489-3.776 9.214.042-3.7.665-8.731 3.776-8.374 3.5.4 4.068 6.288 4.11 9.625.039-3.061-.296-10.029-4.11-10.465z"/><path class="e" d="M188.13 63.93a38.025 38.025 0 0 1-.418-4.856 35.919 35.919 0 0 0 .418 5.687s2.379 1.539 4.2.559c0 0-.031-.3-.064-.809-1.811.934-4.136-.581-4.136-.581z"/><path class="e" d="M203.66 63.51c-.781 1.432-3.261.8-3.6.708-.016.519-.038.828-.038.828s2.8.84 3.636-.708a6.381 6.381 0 0 0 .236-2.409 4.366 4.366 0 0 1-.234 1.581z"/></g></svg>