<svg xmlns="http://www.w3.org/2000/svg" width="222.318" height="176.362" viewBox="0 0 222.318 176.362"><defs><style>.a{opacity:0.75;}.b{fill:#f2f2f2;}.c,.m{fill:#3f3d56;}.d,.k{fill:none;}.d,.m{stroke:#3f3d56;stroke-width:2px;}.d,.k,.m{stroke-miterlimit:10;}.e{fill:#eb5557;}.f{fill:#2f2e41;}.g{fill:#fbbebe;}.h{opacity:0.05;}.i,.k{opacity:0.1;}.j{fill:#d0cde1;}.k{stroke:#000;}.l{fill:#ff6584;}</style></defs><g class="a" transform="translate(0 0)"><rect class="b" width="157.829" height="84.323" transform="matrix(0.853, 0.522, -0.522, 0.853, 87.688, 0)"/><path class="c" d="M342.449,104.318H236v58.264h75.1l.571,13,12.52-7.981,7.868-5.016h10.388Z" transform="translate(-177.982 -78.673)"/><line class="d" x2="94.894" transform="translate(0 175.362)"/><path class="e" d="M541.6,279.611l-2.777-2.505c-9.862-9.054-16.372-14.931-16.372-22.251a10.414,10.414,0,0,1,10.532-10.6A11.328,11.328,0,0,1,541.6,248.3a11.327,11.327,0,0,1,8.617-4.046,10.414,10.414,0,0,1,10.532,10.6c0,7.32-6.51,13.2-16.372,22.251Z" transform="translate(-430.354 -207.158)"/><path class="f" d="M217.261,414.443a6.638,6.638,0,0,1,2.935-6.516c.207-6.4,4.556-11.507,9.891-11.507,5.467,0,9.9,5.365,9.9,11.984s-4.432,11.984-9.9,11.984a8.277,8.277,0,0,1-1.535-.144,6.642,6.642,0,1,1-11.29-5.8Z" transform="translate(-198.767 -321.912)"/><path class="g" d="M273.342,447.469a2.516,2.516,0,0,0,.129,1.161c.228.527.787,1,.623,1.551a1.189,1.189,0,0,1-.831.672c-1.662.563-3.475.228-5.228.3a16.722,16.722,0,0,1-1.758.061,2.8,2.8,0,0,1-1.634-.569,13.977,13.977,0,0,0,2.569-1.616,2.868,2.868,0,0,0,.518-.5,3.034,3.034,0,0,0,.45-1.766q.03-.917-.005-1.835,1.881-.02,3.763-.017c.4,0,1.632-.1,1.772.336.07.217-.2.851-.24,1.1A11.1,11.1,0,0,0,273.342,447.469Z" transform="translate(-235.928 -358.481)"/><path class="h" d="M273.342,447.469a2.516,2.516,0,0,0,.129,1.161c.228.527.787,1,.623,1.551a1.189,1.189,0,0,1-.831.672c-1.662.563-3.475.228-5.228.3a16.722,16.722,0,0,1-1.758.061,2.8,2.8,0,0,1-1.634-.569,13.977,13.977,0,0,0,2.569-1.616,2.868,2.868,0,0,0,.518-.5,3.034,3.034,0,0,0,.45-1.766q.03-.917-.005-1.835,1.881-.02,3.763-.017c.4,0,1.632-.1,1.772.336.07.217-.2.851-.24,1.1A11.1,11.1,0,0,0,273.342,447.469Z" transform="translate(-235.928 -358.481)"/><path class="g" d="M299.018,545.875a8.45,8.45,0,0,1-.484,4.133,78.448,78.448,0,0,0-8.128-.428,4.526,4.526,0,0,0,.868-2.14,11.891,11.891,0,0,0,.014-2.189l5.27-.018a4.966,4.966,0,0,1,1.153.086C298.221,545.44,298.5,545.779,299.018,545.875Z" transform="translate(-255.357 -434.137)"/><path class="g" d="M320.459,545.253c.27.444.6.851.9,1.274a18.538,18.538,0,0,1,1.465,2.518,33.276,33.276,0,0,0,1.65,3.189,8.887,8.887,0,0,1,.922,1.587,5.073,5.073,0,0,1,.268,1.66,3.372,3.372,0,0,1-.5,2.152,1.959,1.959,0,0,1-1.7.753,1.393,1.393,0,0,1-.883-.382,2.029,2.029,0,0,1-.28-1.81,2.64,2.64,0,0,0,.047-1.32,4.781,4.781,0,0,0-.3-.607,4.666,4.666,0,0,1-.374-1.494,5.488,5.488,0,0,0-.9-2.814c-.338-.416-.8-.722-1.127-1.142-.174-.22-.311-.468-.5-.679-.264-.3-.629-.528-.781-.9a3.586,3.586,0,0,1-.138-.743,5.306,5.306,0,0,0-.434-1.148,14.693,14.693,0,0,1-.917-4.4,6.292,6.292,0,0,0,1.892-.373A32.267,32.267,0,0,0,320.459,545.253Z" transform="translate(-275.32 -430.626)"/><path class="h" d="M320.459,545.253c.27.444.6.851.9,1.274a18.538,18.538,0,0,1,1.465,2.518,33.276,33.276,0,0,0,1.65,3.189,8.887,8.887,0,0,1,.922,1.587,5.073,5.073,0,0,1,.268,1.66,3.372,3.372,0,0,1-.5,2.152,1.959,1.959,0,0,1-1.7.753,1.393,1.393,0,0,1-.883-.382,2.029,2.029,0,0,1-.28-1.81,2.64,2.64,0,0,0,.047-1.32,4.781,4.781,0,0,0-.3-.607,4.666,4.666,0,0,1-.374-1.494,5.488,5.488,0,0,0-.9-2.814c-.338-.416-.8-.722-1.127-1.142-.174-.22-.311-.468-.5-.679-.264-.3-.629-.528-.781-.9a3.586,3.586,0,0,1-.138-.743,5.306,5.306,0,0,0-.434-1.148,14.693,14.693,0,0,1-.917-4.4,6.292,6.292,0,0,0,1.892-.373A32.267,32.267,0,0,0,320.459,545.253Z" transform="translate(-275.32 -430.626)"/><circle class="g" cx="4.429" cy="4.429" r="4.429" transform="translate(30.408 79.589)"/><path class="g" d="M254.09,611.346a8.4,8.4,0,0,1,1.462,3.561l1.106,4.627a50.315,50.315,0,0,1,1.132,5.695,7.233,7.233,0,0,1-.179,3.258,6.762,6.762,0,0,1-1.3,2.082,14.372,14.372,0,0,1-4.278,3.479c-.868.45-1.785.8-2.676,1.2-1.33.6-2.6,1.316-3.87,2.033l-4.776,2.7a14.406,14.406,0,0,0-2.913,1.977,7.221,7.221,0,0,0-1.785,2.7,1.36,1.36,0,0,1-.419.7,1.124,1.124,0,0,1-.955.029,5.574,5.574,0,0,1-3.807-5.58,28.942,28.942,0,0,0,9.541-5.579c2.131-1.877,4.052-4.113,6.654-5.253,1.138-.5,2.5-.879,3.034-2a4.091,4.091,0,0,0,.278-1.64,20.843,20.843,0,0,0-.2-4.614c-.248-1.28-.734-2.5-1.1-3.752a41.01,41.01,0,0,1-1.219-7.724,42.994,42.994,0,0,1,5.12-.3.581.581,0,0,1,.423.112.612.612,0,0,1,.131.336A4.073,4.073,0,0,0,254.09,611.346Z" transform="translate(-210.422 -482.18)"/><path class="h" d="M254.09,611.346a8.4,8.4,0,0,1,1.462,3.561l1.106,4.627a50.315,50.315,0,0,1,1.132,5.695,7.233,7.233,0,0,1-.179,3.258,6.762,6.762,0,0,1-1.3,2.082,14.372,14.372,0,0,1-4.278,3.479c-.868.45-1.785.8-2.676,1.2-1.33.6-2.6,1.316-3.87,2.033l-4.776,2.7a14.406,14.406,0,0,0-2.913,1.977,7.221,7.221,0,0,0-1.785,2.7,1.36,1.36,0,0,1-.419.7,1.124,1.124,0,0,1-.955.029,5.574,5.574,0,0,1-3.807-5.58,28.942,28.942,0,0,0,9.541-5.579c2.131-1.877,4.052-4.113,6.654-5.253,1.138-.5,2.5-.879,3.034-2a4.091,4.091,0,0,0,.278-1.64,20.843,20.843,0,0,0-.2-4.614c-.248-1.28-.734-2.5-1.1-3.752a41.01,41.01,0,0,1-1.219-7.724,42.994,42.994,0,0,1,5.12-.3.581.581,0,0,1,.423.112.612.612,0,0,1,.131.336A4.073,4.073,0,0,0,254.09,611.346Z" transform="translate(-210.422 -482.18)"/><path class="f" d="M222.516,734.315l2.57,4.559c.2.352.4.706.563,1.076.279.625.456,1.293.77,1.9a9.457,9.457,0,0,0,1.327,1.8l1.676,1.932a2.25,2.25,0,0,0,.646.576.77.77,0,0,0,.821-.038.853.853,0,0,0,.215-.3,1.812,1.812,0,0,0,.172-.881,1.881,1.881,0,0,0-.61-1.305c-.232-.2-.528-.369-.628-.66a1.214,1.214,0,0,1-.027-.49,19.923,19.923,0,0,1,.664-4.267,6.3,6.3,0,0,0,.574-3.142c-.448-.135-1.03-.228-1.3.155-.522.749-.552.468-1.357.354a3.23,3.23,0,0,1-2.147-.791c-.78-.831-.714-2.121-.6-3.254a4.808,4.808,0,0,0-2.354.633c-.262.132-.518.272-.771.412a1.275,1.275,0,0,0-.373.27C222.013,733.257,222.259,733.86,222.516,734.315Z" transform="translate(-203.908 -574.647)"/><path class="f" d="M286.524,591.693a21.7,21.7,0,0,1,.649,2.746c.075.511.113,1.026.151,1.541a24.325,24.325,0,0,1-5.36.455l-7.491.081a15.96,15.96,0,0,1-.2-3.053c.1-1.68.739-3.319.632-5a46.251,46.251,0,0,1,6.219-.677,2.923,2.923,0,0,1,1.129.106c.339.124.622.366.948.521.733.349,1.834.179,2.457.745C286.225,589.677,286.321,590.975,286.524,591.693Z" transform="translate(-243.184 -466.221)"/><path class="i" d="M286.524,591.693a21.7,21.7,0,0,1,.649,2.746c.075.511.113,1.026.151,1.541a24.325,24.325,0,0,1-5.36.455l-7.491.081a15.96,15.96,0,0,1-.2-3.053c.1-1.68.739-3.319.632-5a46.251,46.251,0,0,1,6.219-.677,2.923,2.923,0,0,1,1.129.106c.339.124.622.366.948.521.733.349,1.834.179,2.457.745C286.225,589.677,286.321,590.975,286.524,591.693Z" transform="translate(-243.184 -466.221)"/><path class="g" d="M287.212,607.24c.565,2.666-.033,5.421-.171,8.143-.1,1.948.039,3.9.095,5.848a8.017,8.017,0,0,1-.076,1.678,8.507,8.507,0,0,1-.444,1.438l-.673,1.794c-.632,1.685-1.276,3.492-.632,5.25a2.459,2.459,0,0,1,.1,1.419c-.965,4.029-.1,8.307.042,12.448a3,3,0,0,0,.208,1.192c.344.728,1.192,1.082,1.637,1.752a2.328,2.328,0,0,1-.291,2.714,3.815,3.815,0,0,1-2.6,1.185,15.071,15.071,0,0,1-3.632-.389l-.133-.126a7.281,7.281,0,0,1,.448-2.444,10.28,10.28,0,0,0,.089-1.516c.008-.453.027-.907,0-1.36a12.509,12.509,0,0,0-.2-1.37l-1.016-5.633-.219-1.217-.912-5.058a10.876,10.876,0,0,1,.36-2.99,41.155,41.155,0,0,0,.389-6.015,7.949,7.949,0,0,0-.193-1.639,7.118,7.118,0,0,1-.229-1.524,5.535,5.535,0,0,0-.506-1.839c-.81-2.042-.777-4.3-.953-6.492a4.963,4.963,0,0,0-.25-1.365,9.375,9.375,0,0,0-1.155-1.8,2.394,2.394,0,0,1-.475-2.012c.359-1.083,1.832-1.431,2.725-1.746a7.662,7.662,0,0,1,4.762-.162A16.442,16.442,0,0,1,287.212,607.24Z" transform="translate(-244.299 -479.292)"/><path class="f" d="M293.687,783.237a.677.677,0,0,0,.253.271.808.808,0,0,0,.387.056l5.946-.126a12.945,12.945,0,0,1,2.191.079c.578.087,1.145.255,1.729.29a7.815,7.815,0,0,0,3.853-1.14.982.982,0,0,0,.472-.375.8.8,0,0,0,.009-.582,1.789,1.789,0,0,0-.662-.961c-.039-.026-.079-.052-.121-.076a2.935,2.935,0,0,0-1.063-.276,7.152,7.152,0,0,1-3.88-1.37c-.3-.264-.559-.574-.839-.861a14.968,14.968,0,0,0-1.907-1.564.675.675,0,0,0-.5-.186.653.653,0,0,0-.274.158,1.882,1.882,0,0,0-.645.8.723.723,0,0,0,.319.891c.232.1.483.047.693.181-.429.31-1.09.465-1.572.785a5.362,5.362,0,0,1-1.58.836,1.618,1.618,0,0,1-1.649-.417c-.2-.25-.464-.633-.741-.469a.524.524,0,0,0-.193.284,7.649,7.649,0,0,0-.564,2.11A2.728,2.728,0,0,0,293.687,783.237Z" transform="translate(-257.565 -608.488)"/><path class="f" d="M274.845,551a3.89,3.89,0,0,1,1.02.113,4.39,4.39,0,0,1,.91.417l3.256,1.805a3.089,3.089,0,0,1,.663.447,2.6,2.6,0,0,1,.633,1.8c.109,2.533-1.034,4.963-1.178,7.494a9.607,9.607,0,0,0,.4,3.342c.082.268.162.6-.034.8a.708.708,0,0,1-.257.148,11.281,11.281,0,0,1-3.256.575,38.673,38.673,0,0,1-8.1.052.945.945,0,0,1-.384-.11.971.971,0,0,1-.325-.471q-.508-1.191-1-2.39a9.061,9.061,0,0,1-.947-4.2c.172-1.791,1.347-3.3,2.033-4.967.2-.5.367-1.012.616-1.488a12.716,12.716,0,0,1,.929-1.4c.264-.375.518-1.219.84-1.483a5.023,5.023,0,0,1,2-.373,16.977,16.977,0,0,1,2.178-.114Z" transform="translate(-237.12 -438.492)"/><path class="i" d="M222.516,736.267l2.57,4.559c.2.352.4.706.563,1.076.279.625.456,1.293.77,1.9a9.456,9.456,0,0,0,1.327,1.8l1.676,1.932a2.248,2.248,0,0,0,.646.576.77.77,0,0,0,.821-.038.853.853,0,0,0,.215-.3,1.812,1.812,0,0,0,.172-.881,5.6,5.6,0,0,1-1.628-1.2,8.045,8.045,0,0,1-.947-1.422l-.693-1.217q-1.78-3.132-3.563-6.264a7.114,7.114,0,0,1-.951-2.662c-.262.132-.518.272-.771.412a1.276,1.276,0,0,0-.373.27C222.013,735.209,222.259,735.812,222.516,736.267Z" transform="translate(-203.908 -576.599)"/><path class="j" d="M258.413,461.09a44.262,44.262,0,0,0,6.516.617c.538.011,1.189-.053,1.427-.536.112-.226.1-.507.261-.7.293-.372.882-.188,1.3.027a3.713,3.713,0,0,1,1.559,1.184,4.021,4.021,0,0,1,.44,1.395,4.97,4.97,0,0,0,1.306,2.834c.41.367.923.607,1.317.991a3.391,3.391,0,0,1,.885,2.438,14.677,14.677,0,0,1-.371,2.634,21.349,21.349,0,0,0,.493,9.7.649.649,0,0,1,.035.35c-.063.227-.338.307-.571.346-3.608.595-7.478.03-10.8,1.563-.276-.682-.961-1.07-1.3-1.723a5.07,5.07,0,0,1-.309-1.75c-.2-1.6-1.219-2.965-1.8-4.471a26.694,26.694,0,0,0-1.4-4c-.253-.434-.568-.83-.815-1.267a14.062,14.062,0,0,1-1.256-3.812,7.846,7.846,0,0,1,1.6-4.8C257.3,461.551,257.76,460.979,258.413,461.09Z" transform="translate(-228.901 -370.052)"/><path class="k" d="M310.382,488.546c.412.092.653.508.845.884a4.684,4.684,0,0,1,.325.738,4.328,4.328,0,0,1,.135,1.32,3.038,3.038,0,0,1-.09.837,1.1,1.1,0,0,1-.488.664" transform="translate(-270.423 -391.389)"/><path class="e" d="M257.392,609.491l-.427-.992c-1.5-3.566-2.5-5.893-1.615-7.815a3.008,3.008,0,0,1,4.042-1.512,3.272,3.272,0,0,1,1.774,2.1,3.272,3.272,0,0,1,2.75-.023A3.008,3.008,0,0,1,265.4,605.3c-.883,1.922-3.3,2.679-6.98,3.867Z" transform="translate(-228.67 -474.601)"/><ellipse class="f" cx="4.95" cy="2.443" rx="4.95" ry="2.443" transform="translate(28.316 79.678) rotate(-14.336)"/><path class="g" d="M256.061,479.39a7.591,7.591,0,0,0-1.24-3.469,2.994,2.994,0,0,0-1.115-1.082,1.378,1.378,0,0,0-1.48.115,2.128,2.128,0,0,0-.532.985,11.823,11.823,0,0,0-.782,4.989,18.691,18.691,0,0,0,.414,4.619c.222.85.564,1.669.734,2.531a3.565,3.565,0,0,1-.313,2.556,6.53,6.53,0,0,0-.828,1.88,9.221,9.221,0,0,0-.148,2.436l.063,2.239a38.275,38.275,0,0,1-.423,8.733c-.266,1.306-.935,2.541-.782,3.865a5.643,5.643,0,0,0,.408,1.391,2.863,2.863,0,0,0,1.165,1.639,2.346,2.346,0,0,0,.947.206,6.467,6.467,0,0,0,1.214-.053c.246-.034.564-.2.481-.433a.477.477,0,0,0-.174-.193,2.707,2.707,0,0,1-1.01-2.1c0-1.159.759-2.273.523-3.408-.146-.7-.665-1.385-.446-2.069.494-1.544.554-3.2.974-4.769l.412-1.535c.245-.913.491-1.826.693-2.75a30.121,30.121,0,0,0,.664-7.79,10.913,10.913,0,0,1,.242-1.279c.04-.479-.008-.962,0-1.443C255.751,483.223,256.253,481.361,256.061,479.39Z" transform="translate(-224.588 -380.929)"/><circle class="l" cx="1.607" cy="1.607" r="1.607" transform="translate(108.804 147.021)"/><line class="d" x2="67.114" transform="translate(142.258 174.999)"/><line class="d" x2="31.713" transform="translate(102.186 174.999)"/><line class="m" y1="18.293" transform="translate(118.283 157.001)"/><circle class="c" cx="2.587" cy="2.587" r="2.587" transform="translate(115.696 154.414)"/><path class="c" d="M604.6,756.055s-.37-7.948-7.946-7.025" transform="translate(-486.318 -587.78)"/><path class="c" d="M865.277,665.736c-6.706,10.285-4.869,23.365-4.869,23.365s12.711-3.594,19.417-13.879,4.869-23.365,4.869-23.365S871.983,655.451,865.277,665.736Z" transform="translate(-685.056 -514.552)"/><path class="e" d="M773.893,697.873s-.163-.026-.464-.087c-.24-.049-.57-.118-.973-.214-3.6-.849-13.179-3.72-19.44-11.268-7.837-9.452-7.507-22.657-7.507-22.657s11.982,1.947,19.878,10.435q.513.547,1,1.134c6.819,8.224,7.454,19.289,7.5,22.025C773.9,697.651,773.893,697.873,773.893,697.873Z" transform="translate(-598.577 -523.443)"/><path class="d" d="M781.037,665.736c6.706,10.285,4.869,23.365,4.869,23.365s-12.711-3.594-19.417-13.879-4.869-23.365-4.869-23.365S774.331,655.451,781.037,665.736Z" transform="translate(-610.554 -514.552)"/><path class="i" d="M834.433,729.251c-.177.214-.333.4-.462.545-.285.325-.446.5-.446.5s-.2-.247-.526-.709c-1.812-2.525-7.639-11.5-7.189-21.877q.036-.815.12-1.613.513.547,1,1.134C833.747,715.451,834.383,726.516,834.433,729.251Z" transform="translate(-659.119 -555.454)"/><path class="e" d="M848.105,646.422c-.53,12.267-9.636,21.836-9.636,21.836s-8.246-10.319-7.716-22.586,9.636-21.836,9.636-21.836S848.635,634.155,848.105,646.422Z" transform="translate(-662.847 -493.42)"/><line class="d" y1="43.573" x2="2.002" transform="translate(175.622 130.917)"/></g></svg>