<svg xmlns="http://www.w3.org/2000/svg" width="24" height="24"><defs><linearGradient id="a" x1="9.154%" x2="90.846%" y1="90.847%" y2="9.153%"><stop offset="0%" stop-color="#FFC107"/><stop offset="50.7%" stop-color="#F44336"/><stop offset="99%" stop-color="#9C27B0"/></linearGradient><linearGradient id="b" x1="14.646%" x2="85.354%" y1="85.354%" y2="14.646%"><stop offset="0%" stop-color="#FFC107"/><stop offset="50.7%" stop-color="#F44336"/><stop offset="99%" stop-color="#9C27B0"/></linearGradient><linearGradient id="c" x1="14.648%" x2="85.352%" y1="85.361%" y2="14.648%"><stop offset="0%" stop-color="#FFC107"/><stop offset="50.7%" stop-color="#F44336"/><stop offset="99%" stop-color="#9C27B0"/></linearGradient></defs><g fill="none" transform="translate(2 2)"><path fill="url(#a)" d="M13.75 0h-7.5A6.25 6.25 0 0 0 0 6.25v7.5A6.25 6.25 0 0 0 6.25 20h7.5A6.25 6.25 0 0 0 20 13.75v-7.5A6.25 6.25 0 0 0 13.75 0zm4.375 13.75a4.38 4.38 0 0 1-4.375 4.375h-7.5a4.38 4.38 0 0 1-4.375-4.375v-7.5A4.38 4.38 0 0 1 6.25 1.875h7.5a4.38 4.38 0 0 1 4.375 4.375v7.5z"/><path fill="url(#b)" d="M10 5a5 5 0 1 0 0 10 5 5 0 0 0 0-10zm0 8.125A3.13 3.13 0 0 1 6.875 10 3.129 3.129 0 0 1 10 6.875 3.129 3.129 0 0 1 13.125 10 3.13 3.13 0 0 1 10 13.125z"/><circle cx="15.375" cy="4.625" r="1" fill="url(#c)"/></g></svg>