<svg xmlns="http://www.w3.org/2000/svg" width="24" height="24"><path fill="#65BBF2" d="M15.959 4.007c-2.312.034-4.133 2.013-4.133 4.304v.556c-4.132-.73-6.163-1.84-8.404-4.166-1.331 2.569.14 4.721 1.75 5.901-1.085 0-1.995-.138-2.696-.763-.07-.035-.14 0-.105.07.595 2.152 2.627 3.714 4.202 4.165-1.435 0-2.381.208-3.397-.417-.07-.034-.14 0-.105.07.77 2.117 2.312 2.777 4.553 2.777-1.12.833-2.626 1.666-5.463 1.736-.105 0-.175.139-.07.208 1.05.868 3.642 1.527 7.284 1.527 5.988 0 10.856-5.276 10.856-11.803v-.347c.945-.347 1.47-1.18 1.75-2.013a.074.074 0 0 0-.07-.07l-1.995.695c-.035 0-.07-.07-.035-.104.84-.66 1.47-1.493 1.75-2.292 0 0-.034-.034-.07-.034-.945.382-1.855.763-2.556.972a.418.418 0 0 1-.35-.035c-.455-.243-1.82-.937-2.696-.937"/></svg>