<svg xmlns="http://www.w3.org/2000/svg" width="171.196" height="130.804" viewBox="0 0 171.196 130.804"><defs><style>.a{opacity:0.75;}.b{fill:#f2f2f2;}.c{fill:#3f3d56;}.d{opacity:0.1;}.e{fill:#ffb9b9;}.f{fill:#2f2e41;}.g,.h{fill:#1c8983;}.h{opacity:0.08;}</style></defs><g transform="translate(-203.692 -24.196)"><g class="a" transform="translate(196.416 39)"><path class="b" d="M132.891,608.889c0,8.513,5.061,11.486,11.3,11.486s11.3-2.972,11.3-11.486-11.3-19.343-11.3-19.343S132.891,600.376,132.891,608.889Z" transform="translate(8.086 -530.323)"/><path class="b" d="M40.935,560.246l-.116-7.125L36,544.307l4.8,7.7-.052-3.2-3.321-6.377,3.307,5.529h0l-.093-5.762-3.556-5.077,3.541,4.171-.059-10.565.368,13.986-.03-.577,3.615-5.534-3.557,6.641.337,6.435.01-.171,4.168-5.823L41.323,552.1l.042.8.008.012,0,.066.855,16.326H41.082l-.137-8.433L36.8,554.469Z" transform="translate(111.757 -471.497)"/><path class="b" d="M132.891,608.889c0,8.513,5.061,11.486,11.3,11.486s11.3-2.972,11.3-11.486-11.3-19.343-11.3-19.343S132.891,600.376,132.891,608.889Z" transform="translate(8.086 -530.323)"/><path class="c" d="M40.935,560.246l-.116-7.125L36,544.307l4.8,7.7-.052-3.2-3.321-6.377,3.307,5.529h0l-.093-5.762-3.556-5.077,3.541,4.171-.059-10.565.368,13.986-.03-.577,3.615-5.534-3.557,6.641.337,6.435.01-.171,4.168-5.823L41.323,552.1l.042.8.008.012,0,.066.855,16.326H41.082l-.137-8.433L36.8,554.469Z" transform="translate(111.757 -471.497)"/><ellipse class="d" cx="20.457" cy="3.582" rx="20.457" ry="3.582" transform="translate(104.741 93.965)"/><path class="e" d="M380.341,446.723l-6.055.233s-5.356,2.562-5.356,4.658,6.288-2.329,6.288-2.329l5.124-.233Z" transform="translate(-258.684 -413.082)"/><path class="d" d="M380.341,446.723l-6.055.233s-5.356,2.562-5.356,4.658,6.288-2.329,6.288-2.329l5.124-.233Z" transform="translate(-258.684 -413.082)"/><path class="e" d="M324.991,436.159s-1.164,2.795-.932,4.192,9.083.932,9.083.932l-1.4-4.192Z" transform="translate(-203.501 -404.393)"/><path class="e" d="M191.369,663.9l.466,6.288-3.959.233-.7-6.055Z" transform="translate(-61.474 -581.191)"/><path class="f" d="M317.977,457.288l.932,2.329s2.1,2.1,1.63,7.22-.7,5.357-.7,5.357,1.863,32.372.233,32.605-10.713,4.658-11.645-.466-1.4-25.851-1.4-25.851l10.713-19.33Z" transform="translate(-188.099 -421.577)"/><path class="d" d="M317.977,457.288l.932,2.329s2.1,2.1,1.63,7.22-.7,5.357-.7,5.357,1.863,32.372.233,32.605-10.713,4.658-11.645-.466-1.4-25.851-1.4-25.851l10.713-19.33Z" transform="translate(-188.099 -421.577)"/><path class="e" d="M241.784,640.6l2.1,3.028-3.493,1.4-3.028-4.891Z" transform="translate(-122.434 -561.725)"/><circle class="e" cx="5.357" cy="5.357" r="5.357" transform="translate(116.108 2.919)"/><path class="e" d="M313.342,293.535s4.658,4.891,6.055,5.124-4.891,4.192-4.891,4.192v-1.4s-2.1-2.1-3.261-2.329S313.342,293.535,313.342,293.535Z" transform="translate(-187.642 -287.122)"/><path class="f" d="M347.635,450.433l1.4,3.493s2.795,6.987-1.164,10.713-15.371,15.371-14.905,17.933,7.369,11.617,5.2,12.8S312.235,492.354,312,489.56c-.087-1.048.775-3.079,1.887-5.207a54.8,54.8,0,0,1,7.693-11.063l15.8-17.732s1.63-3.493,1.164-4.192c0,0,1.863-1.863,7.453-.466Z" transform="translate(-218.412 -415.933)"/><path class="f" d="M317.419,754.421s1.164,3.726,1.63,3.959.932,2.795.466,3.26a7.068,7.068,0,0,0-.7,2.562h-.466l-.233-2.329s-4.825,2.913-5.589,3.26c-1.281.582-6.987.466-6.754-.7s6.987-4.891,6.754-5.822a13.2,13.2,0,0,1,.466-3.726Z" transform="translate(-186.842 -666.122)"/><path class="f" d="M327.991,716.667l4.658-1.863s1.164,1.863,2.562,1.863a3.11,3.11,0,0,1,2.406,1.778c-.077.085,2.019,2.879,2.019,2.879l-.376.677-2.651-1.609-.743,3.121a11.907,11.907,0,0,1-2.354,4.813c-.914,1.112-2.052,2.055-3.191,1.848,0,0-.466,0,0-3.26a19.517,19.517,0,0,0-.466-6.754Z" transform="translate(-210.708 -633.491)"/><path class="g" d="M296.94,320.3s-.466,1.164-.932,1.4-1.863,1.165-2.1,2.1-1.4,3.726-1.4,3.726-2.562,1.4-2.329,3.959.466,4.658,0,4.891-.932.233-.7.932-.466,1.4-.7,1.63-.7-.233-.233.466.233.932,0,1.164-.466.233-.233.7,8.85,3.493,9.316,3.493.466-.466.233-1.164-1.164-1.4-.233-1.63,1.164-.233,1.164-1.4,3.959-8.151,3.959-8.151,1.63-5.357,0-7.685-2.795-3.959-3.726-4.425A2.9,2.9,0,0,0,296.94,320.3Z" transform="translate(-167.509 -308.997)"/><path class="e" d="M220.267,383.335l2.795,7.685,5.589,16.535s5.822,8.151,1.863,7.685-4.425-7.685-4.425-7.685l-5.357-12.809-4.891-9.782Z" transform="translate(-83.053 -360.889)"/><path class="g" d="M280.512,345.038l.932.233s3.261,6.521,2.562,7.22-4.425,2.562-5.124,2.329-1.63-6.987-1.63-6.987Z" transform="translate(-146.149 -329.439)"/><path class="f" d="M311.758,263.415a44.992,44.992,0,0,1-6.07-3.969c-.673-.465-1.328-.953-1.98-1.448-1.314-1-4.476-1.341-7.205.409-3.119,2-4.642,5.191-3.8,6.509.7,1.089,3.016.9,5.561-.331a17.083,17.083,0,0,0,2.07,6.154c2.022,3.154,3.724.181,6.878-1.842S315.188,264.923,311.758,263.415Z" transform="translate(-177.739 -257.173)"/></g><path class="h" d="M2640.459,234s-29.323-58.222,34.109-69.112,77.618-16.4,96.528-42.068,33.791-18.784,33.791-18.784V234Z" transform="translate(-2430 -79)"/></g></svg>