<svg xmlns="http://www.w3.org/2000/svg" width="230.715" height="166.757" viewBox="0 0 230.715 166.757"><defs><style>.a{opacity:0.75;}.b{fill:#f2f2f2;}.c{opacity:0.03;}.d{fill:#36334a;}.e{opacity:0.1;}.f{fill:#3f3d56;}.g,.i{fill:#eb5557;}.h,.i{opacity:0.2;}.j{fill:#ff6584;}.k{fill:#fbbebe;}.l{fill:#696880;}</style></defs><g class="a"><path class="b" d="M428.234,242.321H397.948v-6.55a1.567,1.567,0,0,0-1.567-1.567h-8.894v-6.978a.986.986,0,0,0-.986-.986H375.045a.986.986,0,0,0-.986.986v6.98H363.6a1.567,1.567,0,0,0-1.567,1.567v6.55h-28.88a.319.319,0,0,0-.316.319V329.6a.319.319,0,0,0,.316.319H352.35a.319.319,0,0,0,.319-.319V317.9a.321.321,0,0,1,.319-.319h8.108a.321.321,0,0,1,.319.319v11.7a.318.318,0,0,0,.316.319h37.927a.321.321,0,0,0,.319-.319V317.9a.319.319,0,0,1,.316-.319H408.4a.319.319,0,0,1,.319.319v11.7a.321.321,0,0,0,.319.319h19.193a.321.321,0,0,0,.319-.319V242.64a.321.321,0,0,0-.314-.319Zm-79,71.2a.316.316,0,0,1-.316.316H337.061a.316.316,0,0,1-.319-.316v-4.037a.319.319,0,0,1,.319-.319h11.862a.319.319,0,0,1,.316.319Zm0-10.463a.316.316,0,0,1-.316.319H337.061a.316.316,0,0,1-.319-.319v-4.047a.316.316,0,0,1,.319-.319h11.862a.316.316,0,0,1,.316.319Zm0-10.46a.319.319,0,0,1-.316.319H337.061a.319.319,0,0,1-.319-.319v-4.049a.319.319,0,0,1,.319-.319h11.862a.319.319,0,0,1,.316.319Zm0-10.463a.316.316,0,0,1-.316.319H337.061a.316.316,0,0,1-.319-.319V278.1a.316.316,0,0,1,.319-.319h11.862a.316.316,0,0,1,.316.319Zm0-10.46a.319.319,0,0,1-.316.319H337.061a.319.319,0,0,1-.319-.319v-4.049a.316.316,0,0,1,.319-.316h11.862a.316.316,0,0,1,.316.316Zm0-10.46a.316.316,0,0,1-.316.316H337.061a.316.316,0,0,1-.319-.316v-4.049a.319.319,0,0,1,.319-.319h11.862a.319.319,0,0,1,.316.319Zm0-10.463a.316.316,0,0,1-.316.319H337.061a.316.316,0,0,1-.319-.319v-4.035a.316.316,0,0,1,.319-.319h11.862a.316.316,0,0,1,.316.319Zm28.106,62.767a.316.316,0,0,1-.319.316H365.165a.319.319,0,0,1-.319-.316v-4.035a.321.321,0,0,1,.319-.319H377.02a.319.319,0,0,1,.319.319Zm0-10.463a.316.316,0,0,1-.319.319H365.165a.319.319,0,0,1-.319-.319v-4.044a.319.319,0,0,1,.319-.319H377.02a.316.316,0,0,1,.319.319Zm0-10.46a.319.319,0,0,1-.319.319H365.165a.321.321,0,0,1-.319-.319v-4.047a.321.321,0,0,1,.319-.319H377.02a.319.319,0,0,1,.319.319Zm0-10.463a.316.316,0,0,1-.319.319H365.165a.319.319,0,0,1-.319-.319V278.1a.319.319,0,0,1,.319-.319H377.02a.316.316,0,0,1,.319.319Zm0-10.46a.319.319,0,0,1-.319.319H365.165a.321.321,0,0,1-.319-.319v-4.047a.319.319,0,0,1,.319-.316H377.02a.316.316,0,0,1,.319.316Zm0-10.46a.316.316,0,0,1-.319.316H365.165a.319.319,0,0,1-.319-.316v-4.047a.321.321,0,0,1,.319-.319H377.02a.319.319,0,0,1,.319.319Zm0-10.463a.316.316,0,0,1-.319.319H365.165a.319.319,0,0,1-.319-.319v-4.033a.319.319,0,0,1,.319-.319H377.02a.316.316,0,0,1,.319.319Zm19.205,62.767a.316.316,0,0,1-.319.316H384.37a.319.319,0,0,1-.319-.316v-4.033a.321.321,0,0,1,.319-.319h11.855a.319.319,0,0,1,.319.319Zm0-10.463a.316.316,0,0,1-.319.319H384.37a.319.319,0,0,1-.319-.319v-4.042a.319.319,0,0,1,.319-.319h11.855a.316.316,0,0,1,.319.319Zm0-10.46a.319.319,0,0,1-.319.319H384.37a.321.321,0,0,1-.319-.319v-4.044a.321.321,0,0,1,.319-.319h11.855a.319.319,0,0,1,.319.319Zm0-10.463a.316.316,0,0,1-.319.319H384.37a.319.319,0,0,1-.319-.319V278.1a.319.319,0,0,1,.319-.319h11.855a.316.316,0,0,1,.319.319Zm0-10.46a.319.319,0,0,1-.319.319H384.37a.321.321,0,0,1-.319-.319v-4.044a.319.319,0,0,1,.319-.316h11.855a.316.316,0,0,1,.319.316Zm0-10.46a.316.316,0,0,1-.319.316H384.37a.319.319,0,0,1-.319-.316v-4.044a.321.321,0,0,1,.319-.319h11.855a.319.319,0,0,1,.319.319Zm0-10.463a.316.316,0,0,1-.319.319H384.37a.319.319,0,0,1-.319-.319v-4.03a.319.319,0,0,1,.319-.319h11.855a.316.316,0,0,1,.319.319ZM424.65,313.51a.319.319,0,0,1-.319.316H412.476a.316.316,0,0,1-.319-.316v-4.03a.319.319,0,0,1,.319-.319h11.855a.321.321,0,0,1,.319.319Zm0-10.463a.319.319,0,0,1-.319.319H412.476a.316.316,0,0,1-.319-.319v-4.04a.316.316,0,0,1,.319-.319h11.855a.319.319,0,0,1,.319.319Zm0-10.46a.321.321,0,0,1-.319.319H412.476a.319.319,0,0,1-.319-.319v-4.042a.319.319,0,0,1,.319-.319h11.855a.321.321,0,0,1,.319.319Zm0-10.463a.319.319,0,0,1-.319.319H412.476a.316.316,0,0,1-.314-.311V278.1a.316.316,0,0,1,.319-.319h11.855a.319.319,0,0,1,.319.319Zm0-10.46a.321.321,0,0,1-.319.319H412.476a.319.319,0,0,1-.319-.319v-4.042a.316.316,0,0,1,.319-.316h11.855a.318.318,0,0,1,.319.316Zm0-10.46a.319.319,0,0,1-.319.316H412.476a.316.316,0,0,1-.319-.316v-4.042a.319.319,0,0,1,.319-.319h11.855a.321.321,0,0,1,.319.319Zm0-10.463a.319.319,0,0,1-.319.319H412.476a.316.316,0,0,1-.314-.311v-4.035a.316.316,0,0,1,.319-.319h11.855a.319.319,0,0,1,.319.319Z" transform="translate(-273.799 -195.661)"/><path class="b" d="M261.19,114.814l-3.662,2.322,2.223-4.044a3.622,3.622,0,0,0-2.213-.79h-.059a4.268,4.268,0,0,1-.76-.057l-1.241.786.531-.967a4.4,4.4,0,0,1-2.171-1.652l-2.22,1.416,1.4-2.551a6.5,6.5,0,0,0-4.977-2.515,6.821,6.821,0,0,0-5.7,3.514,4.247,4.247,0,0,1-3.775,2.029h-.123c-2.551,0-4.618,2.893-4.618,6.458s2.077,6.461,4.627,6.461a3.473,3.473,0,0,0,1.607-.4,6.657,6.657,0,0,1,5.59-.109,5.819,5.819,0,0,0,4.752,0,6.661,6.661,0,0,1,5.538.109,3.473,3.473,0,0,0,1.593.4c2.551,0,4.618-2.893,4.618-6.461A8.188,8.188,0,0,0,261.19,114.814Z" transform="translate(-198.152 -104.374)"/><path class="c" d="M254.319,151.517a6.817,6.817,0,0,0-3.957.429,5.826,5.826,0,0,1-4.75,0,6.673,6.673,0,0,0-5.59.109,3.447,3.447,0,0,1-1.609.4c-2.265,0-4.151-2.282-4.542-5.293A4.349,4.349,0,0,0,235,145.944a6.363,6.363,0,0,1,11.359-.038,4.361,4.361,0,0,0,3.764,2.067h.059C252,147.961,253.559,149.408,254.319,151.517Z" transform="translate(-198.182 -131.628)"/><path class="b" d="M852.614,100.669l-1.831,1.159,1.109-2.018a1.809,1.809,0,0,0-1.1-.394h-.028a2.029,2.029,0,0,1-.38-.028l-.618.394.264-.472a2.218,2.218,0,0,1-1.083-.821l-1.107.708.708-1.272a3.235,3.235,0,0,0-2.48-1.274,3.38,3.38,0,0,0-2.832,1.753,2.124,2.124,0,0,1-1.888,1.012h-.061c-1.272,0-2.3,1.442-2.3,3.221s1.031,3.221,2.3,3.221a1.727,1.727,0,0,0,.8-.2,3.322,3.322,0,0,1,2.787-.054,2.909,2.909,0,0,0,2.371,0,3.33,3.33,0,0,1,2.763.054,1.72,1.72,0,0,0,.793.2c1.272,0,2.3-1.442,2.3-3.221a4.1,4.1,0,0,0-.488-1.963Z" transform="translate(-660.507 -96.65)"/><path class="c" d="M849.171,118.958a3.426,3.426,0,0,0-1.975.215,2.9,2.9,0,0,1-1.18.25,2.928,2.928,0,0,1-1.18-.255,3.327,3.327,0,0,0-2.789.054,1.721,1.721,0,0,1-.8.2c-1.13,0-2.069-1.137-2.265-2.64a2.185,2.185,0,0,0,.566-.609,3.171,3.171,0,0,1,5.663-.019,2.175,2.175,0,0,0,1.888,1.031h.031A2.367,2.367,0,0,1,849.171,118.958Z" transform="translate(-660.507 -110.227)"/><path class="b" d="M650.511,188.352l-2.147,1.362,1.3-2.36a2.124,2.124,0,0,0-1.3-.472h-.035a2.549,2.549,0,0,1-.446-.033l-.727.472.311-.569a2.6,2.6,0,0,1-1.274-.965l-1.3.826.824-1.5a3.811,3.811,0,0,0-2.919-1.477,4,4,0,0,0-3.341,2.062,2.492,2.492,0,0,1-2.209,1.18h-.073c-1.5,0-2.706,1.7-2.706,3.775s1.211,3.787,2.706,3.787a2.02,2.02,0,0,0,.944-.236,3.908,3.908,0,0,1,3.278-.064,3.426,3.426,0,0,0,2.787,0,3.912,3.912,0,0,1,3.249.064,2.048,2.048,0,0,0,.944.236c1.5,0,2.709-1.694,2.709-3.787A4.814,4.814,0,0,0,650.511,188.352Z" transform="translate(-504.255 -163.113)"/><path class="c" d="M646.464,209.879a4.011,4.011,0,0,0-2.322.252,3.426,3.426,0,0,1-2.787,0,3.908,3.908,0,0,0-3.278.064,2.027,2.027,0,0,1-.944.236c-1.328,0-2.435-1.338-2.664-3.1a2.537,2.537,0,0,0,.663-.708,3.738,3.738,0,0,1,6.668-.024,2.553,2.553,0,0,0,2.206,1.213h.026A2.745,2.745,0,0,1,646.464,209.879Z" transform="translate(-504.255 -179.097)"/><path class="d" d="M928.263,595.941c0,.406,0,.812-.026,1.213a28.683,28.683,0,0,1-.562,4.646c-1.55,7.577-6.027,13.467-11.65,15.206a11.63,11.63,0,0,1-3.455.526c-8.667,0-15.692-9.675-15.692-21.591s7.025-21.591,15.692-21.591c8.129,0,14.816,8.509,15.612,19.408C928.238,594.476,928.263,595.2,928.263,595.941Z" transform="translate(-704.745 -461.629)"/><path class="e" d="M965.675,613.973a28.678,28.678,0,0,1-.562,4.646c-1.55,7.577-6.027,13.467-11.65,15.206-4.354-2-7.584-9.512-7.584-18.469,0-10.491,4.436-19,9.911-19,4.594,0,8.459,6,9.58,14.137C965.526,611.613,965.628,612.779,965.675,613.973Z" transform="translate(-742.182 -478.445)"/><path class="f" d="M695.88,450.078s42.474-8.731,64.891-.708c0,0,3.3,1.652,0,4.483,0,0,3.124,3.3-2.331,4.483l-21.673,1.333-40.886-4.165Z" transform="translate(-551.174 -363.549)"/><path class="e" d="M727.38,456.636s36.365-7.475,55.558-.606c0,0,2.832,1.416,0,3.839,0,0,2.674,2.832-2,3.839l-18.556,1.14-35.006-3.561Z" transform="translate(-575.241 -369.01)"/><path class="g" d="M710.343,466.811l-2.832-5.663s1.241-5.729-8.849-7.414a6.5,6.5,0,0,0-12.228-.184c-1.449.125-2.992.295-4.644.519l-2.308,12.374-.288-.576s1.465-6.768-11.742-7.756a4.913,4.913,0,0,0,1.123-3.1c0-3-2.8-5.427-6.253-5.427s-6.253,2.428-6.253,5.427a4.955,4.955,0,0,0,1.312,3.322q-1.852.177-3.908.453l-2.6,13.922,12.034,1.652,19.113-2.832-1.692-3.386,10.895,1.5Z" transform="translate(-516.792 -366.125)"/><path class="h" d="M710.343,466.811l-2.832-5.663s1.241-5.729-8.849-7.414a6.5,6.5,0,0,0-12.228-.184c-1.449.125-2.992.295-4.644.519l-2.308,12.374-.288-.576s1.465-6.768-11.742-7.756a4.913,4.913,0,0,0,1.123-3.1c0-3-2.8-5.427-6.253-5.427s-6.253,2.428-6.253,5.427a4.955,4.955,0,0,0,1.312,3.322q-1.852.177-3.908.453l-2.6,13.922,12.034,1.652,19.113-2.832-1.692-3.386,10.895,1.5Z" transform="translate(-516.792 -366.125)"/><path class="g" d="M720.928,435.168s-1.888-10.59,6.843-10.826,5.9,15.338,5.9,15.338,6.607,1.416,7.079,4.011-22.889,3.3-22.889,3.3Z" transform="translate(-567.967 -347.015)"/><path class="d" d="M531.41,627.508c0,12.506-9.3,22.653-20.765,22.653s-20.765-10.147-20.765-22.653,9.413-24.658,20.883-24.658S531.41,615,531.41,627.508Z" transform="translate(-393.783 -483.404)"/><ellipse class="e" cx="16.518" cy="19.111" rx="16.518" ry="19.111" transform="translate(100.345 125.937)"/><ellipse class="d" cx="20.765" cy="22.653" rx="20.765" ry="22.653" transform="translate(4.778 119.326)"/><path class="d" d="M311.029,469.35s-9.675.472-9.2,5.663,8.259,1.416,8.259,1.416Z" transform="translate(-250.09 -381.406)"/><path class="f" d="M397.688,406.693l3.983-26.582s.944-3.3-11.8-3.3c0,0-40.822-2.6-51.2,1.652,0,0-12.034,4.483-28.788,27.608C309.88,406.067,396.036,408.109,397.688,406.693Z" transform="translate(-256.257 -310.1)"/><path class="d" d="M410.277,388.35l-7.315,29.024-4.587-.111-21.709-.529-48.418-1.18c-.134-2.294,22.794-26.025,22.794-26.025Z" transform="translate(-270.29 -319.519)"/><path class="i" d="M533.47,448.815l1.977-7.645s-1.888-10.592,6.843-10.828,5.9,15.338,5.9,15.338,6.017,1.291,6.975,3.665Z" transform="translate(-427.087 -351.6)"/><path class="f" d="M306.267,530.874C304.851,517.188,296,514.239,296,514.239c-8.495-.472-14.158,31.855-14.158,31.855l-65.363,5.9s2.242-27.49-13.568-31.973-19.939,27.726-20.647,32.209-95.33-.472-97.926-2.36S82.689,529.813,83.4,528.4s2.6-7.787,2.6-7.787a13.073,13.073,0,0,1,1.331-4.774c.425-.944.793-1.6.793-1.6,2.051-11.628,12.7-14.443,13.412-14.63h.038c2.832-2.832,29.024-4.719,29.024-4.719L140.5,493l80.575,1.583,3.429.068,40.964-1.97,27.7-1.333c6.371,0,9.675,16.046,9.675,16.046C308.744,521.554,306.267,530.874,306.267,530.874Z" transform="translate(-82.63 -398.214)"/><ellipse class="e" cx="12.148" cy="7.605" rx="12.148" ry="7.605" transform="translate(73.851 109.188) rotate(-21.92)"/><ellipse class="b" cx="12.148" cy="7.605" rx="12.148" ry="7.605" transform="translate(73.38 108.243) rotate(-21.92)"/><path class="e" d="M118.725,528.39a18.89,18.89,0,0,1-3.377,9.026c-3.367,5.078-7.985,8.068-10.828,7.192.425-.944.793-1.6.793-1.6C107.363,531.382,118.01,528.567,118.725,528.39Z" transform="translate(-99.355 -426.514)"/><path class="b" d="M115.725,526.39a18.89,18.89,0,0,1-3.377,9.026c-3.367,5.078-7.985,8.068-10.828,7.192.425-.944.793-1.6.793-1.6C104.363,529.382,115.01,526.567,115.725,526.39Z" transform="translate(-97.063 -424.986)"/><path class="d" d="M155.835,451.286H137.194l-.944-2.6H158.9Z" transform="translate(-104.1 -342.814)"/><rect class="d" width="30.676" height="8.967" transform="translate(16.813 127.584)"/><circle class="e" cx="4.247" cy="4.247" r="4.247" transform="translate(76.276 136.787)"/><circle class="b" cx="4.247" cy="4.247" r="4.247" transform="translate(75.804 136.079)"/><ellipse class="e" cx="2.124" cy="4.483" rx="2.124" ry="4.483" transform="translate(1.239 133.248)"/><ellipse class="b" cx="2.124" cy="4.483" rx="2.124" ry="4.483" transform="translate(0.531 133.012)"/><path class="d" d="M720.68,521.151c-2.6,8.023-2.832,20.529-2.832,20.529l-.944,3.3-46.013,5.191s.236-23.125.944-33.979A44.059,44.059,0,0,0,669.35,498.9l3.429.068L713.742,497C720.585,501.8,723.009,513.947,720.68,521.151Z" transform="translate(-530.904 -402.531)"/><path class="b" d="M838.918,535.987a1.158,1.158,0,0,0-1.066,1.343.828.828,0,0,0,.472.616c.762.38,5.835-.472,7.759-.812a1.305,1.305,0,0,0,1.09-1.163c.024-.335-.1-.621-.59-.621Z" transform="translate(-659.633 -431.832)"/><path class="d" d="M668.88,482.249s1.18,5.191,6.843,3.539l1.888-7.315-3.775-2.124Z" transform="translate(-530.545 -386.754)"/><path class="d" d="M690.693,451.39c2.6-1.539,6.713-2.884,10.786.347a4.814,4.814,0,0,1,1.39,5.791c-1.333,2.886-4.5,6.017-11.886,2.268a4.766,4.766,0,0,1-1.8-1.59l-.038-.057a4.79,4.79,0,0,1,1.546-6.758Z" transform="translate(-545.423 -366.435)"/><circle class="b" cx="4.719" cy="4.719" r="4.719" transform="translate(112.261 139.265)"/><ellipse class="b" cx="2.596" cy="4.719" rx="2.596" ry="4.719" transform="translate(211.838 130.77)"/><rect class="d" width="6.135" height="8.259" rx="3.068" transform="translate(113.795 129.472)"/><path class="d" d="M899.582,510.19h0a1.652,1.652,0,0,1,1.652,1.652v3.775a2.832,2.832,0,0,1-2.832,2.832h0a1.652,1.652,0,0,1-1.652-1.652v-3.776A2.832,2.832,0,0,1,899.582,510.19Z" transform="translate(-685.148 -389.803)"/><path class="d" d="M982.212,708.109h0a2.831,2.831,0,0,1-2.832-2.832v-2.6a2.832,2.832,0,0,1,2.832-2.832h0c1.557,0,1.416,1.274,1.416,2.832v2.6C983.625,706.835,983.774,708.109,982.212,708.109Z" transform="translate(-767.778 -557.515)"/><path class="d" d="M872.638,556.19h0a2.832,2.832,0,0,1,2.832,2.832v3.539a1.888,1.888,0,0,1-1.888,1.888h0a2.832,2.832,0,0,1-2.832-2.832v-3.539A1.888,1.888,0,0,1,872.638,556.19Z" transform="translate(-665.283 -424.948)"/><path class="d" d="M1017.281,658.21c0,.406,0,.812-.026,1.213a28.677,28.677,0,0,1-.562,4.646,2.877,2.877,0,0,1-.472.04,2.832,2.832,0,0,1-2.832-2.832v-2.6a2.832,2.832,0,0,1,2.832-2.832,2.764,2.764,0,0,1,.731.1c.085.024.17.05.25.08C1017.255,656.744,1017.281,657.473,1017.281,658.21Z" transform="translate(-793.762 -523.898)"/><rect class="d" width="6.135" height="8.259" rx="3.068" transform="translate(125.711 139.501)"/><rect class="d" width="6.135" height="8.259" rx="3.068" transform="translate(102.586 139.501)"/><rect class="d" width="6.135" height="8.259" rx="3.068" transform="translate(113.913 151.771)"/><path class="j" d="M902.251,290a3.878,3.878,0,0,1-.236,1.319,3.917,3.917,0,0,1-7.336.1,3.85,3.85,0,0,1-.269-1.416,3.917,3.917,0,1,1,7.834,0Z" transform="translate(-702.858 -241.389)"/><path class="j" d="M894.167,288.02a3.917,3.917,0,0,1,1.524-5.326,3.877,3.877,0,0,1,1.416-.472,3.917,3.917,0,1,0,.33,7.8A3.915,3.915,0,0,1,894.167,288.02Z" transform="translate(-701.82 -238.431)"/><rect class="j" width="10.493" height="16.369" transform="translate(190.58 54.067)"/><rect class="e" width="10.493" height="16.369" transform="translate(190.816 53.595)"/><path class="k" d="M794.206,577.46s-1.118,3.068-3.776,3.5a18.491,18.491,0,0,0-4.191,1.114l6.3,4.056,3.358-.42s.418-4.337,1.817-5.316S794.206,577.46,794.206,577.46Z" transform="translate(-620.212 -464.005)"/><path class="k" d="M1000.575,577.46s1.119,3.068,3.776,3.5a18.324,18.324,0,0,1,4.2,1.121l-6.3,4.056-3.358-.42s-.418-4.337-1.817-5.316S1000.575,577.46,1000.575,577.46Z" transform="translate(-781.106 -464.005)"/><path class="l" d="M825.348,462.44a4.888,4.888,0,0,0-2.239,2.518,9.768,9.768,0,0,0-4.757,3.639s-2.1,2.237-2.379,3.358-3.5,7.843-3.5,7.843-3.216,10.491-4.9,11.612c0,0,5.316-1.121,6.3,4.2,0,0,1.26,0,2.659-4.9A63.2,63.2,0,0,1,821.29,479.8s1.121-4.2,2.1-4.9,2.518-3.917,3.917-3.079,10.633-.139,10.633-.139,5.456,2.518,5.595,4.2,1.121,1.817,1.26,3.216,5.316,12.452,5.316,12.452.979,3.068,1.258,3.775c0,0,3.079-7.414,7.136-3.219a9.6,9.6,0,0,0-1.4-4.483c-1.26-1.685-6.716-14.83-6.716-14.83a8.606,8.606,0,0,0-1.118-2.518c-.559-.559-4.9-5.035-6.432-5.035,0,0-.84-2.1-1.819-2.379Z" transform="translate(-636.517 -376.126)"/><path class="l" d="M785.859,597.761a6.817,6.817,0,0,1-6.661-.9,13.279,13.279,0,0,0-2.971-1.72c-1.482-.6-3.259-1.045-3.8-.04-.979,1.817,11.893,6.3,11.893,6.3A3.873,3.873,0,0,0,785.859,597.761Z" transform="translate(-609.618 -477.031)"/><path class="l" d="M1003.2,597.761a6.817,6.817,0,0,0,6.661-.9,13.277,13.277,0,0,1,2.971-1.72c1.482-.6,3.259-1.045,3.8-.04.979,1.817-11.893,6.3-11.893,6.3A3.873,3.873,0,0,1,1003.2,597.761Z" transform="translate(-785.973 -477.031)"/><path class="k" d="M889.548,360.014a1.66,1.66,0,0,1-.628,1.272,3.46,3.46,0,0,1-1.161.276,2.7,2.7,0,0,0-1.848,1.6,4.134,4.134,0,0,0-.175,2.489,9.175,9.175,0,0,0,.356,1.2,11.327,11.327,0,0,0,1.673,3.278,13.924,13.924,0,0,0,2.194,2.067,3.787,3.787,0,0,0,2.9,1.18,2.822,2.822,0,0,0,1.555-.222c.708-.408.92-1.312,1.3-2.034.328-.616.814-1.135,1.118-1.763a7.023,7.023,0,0,0,.472-1.536l.654-2.9a4.1,4.1,0,0,0-.142-3.145.5.5,0,0,0-.175-.182.649.649,0,0,0-.356-.038,3.851,3.851,0,0,1-2.159-.493.854.854,0,0,1-.271-.212,1.068,1.068,0,0,1-.168-.5,5.266,5.266,0,0,0-.3-1.052.708.708,0,0,0-.205-.314.734.734,0,0,0-.33-.111,27.016,27.016,0,0,0-3.051-.321c-.337-.014-.842-.149-1.071.146S889.586,359.66,889.548,360.014Z" transform="translate(-696.143 -296.711)"/><path class="e" d="M889.548,360.014a1.66,1.66,0,0,1-.628,1.272,3.46,3.46,0,0,1-1.161.276,2.7,2.7,0,0,0-1.848,1.6,4.134,4.134,0,0,0-.175,2.489,9.175,9.175,0,0,0,.356,1.2,11.327,11.327,0,0,0,1.673,3.278,13.924,13.924,0,0,0,2.194,2.067,3.787,3.787,0,0,0,2.9,1.18,2.822,2.822,0,0,0,1.555-.222c.708-.408.92-1.312,1.3-2.034.328-.616.814-1.135,1.118-1.763a7.023,7.023,0,0,0,.472-1.536l.654-2.9a4.1,4.1,0,0,0-.142-3.145.5.5,0,0,0-.175-.182.649.649,0,0,0-.356-.038,3.851,3.851,0,0,1-2.159-.493.854.854,0,0,1-.271-.212,1.068,1.068,0,0,1-.168-.5,5.266,5.266,0,0,0-.3-1.052.708.708,0,0,0-.205-.314.734.734,0,0,0-.33-.111,27.016,27.016,0,0,0-3.051-.321c-.337-.014-.842-.149-1.071.146S889.586,359.66,889.548,360.014Z" transform="translate(-696.143 -296.711)"/><path class="b" d="M875.241,370a6.473,6.473,0,0,0-1.685-.267,4.215,4.215,0,0,0-3.573,1.536,3.627,3.627,0,0,0-.54,2.7,5.6,5.6,0,0,0,1.227,2.518,7.57,7.57,0,0,1,.944,1.236,6.552,6.552,0,0,1,.472,2.36c.236,1.914,1.052,3.716,1.378,5.618s.042,4.111-1.461,5.323c-.253.2-.557.415-.578.739-.035.517.637.739,1.154.786a13.153,13.153,0,0,0,4.632-.106c.623-.165,1.22-.422,1.852-.54,1.607-.3,3.221.314,4.826.611a21.67,21.67,0,0,0,3.518.286,1.889,1.889,0,0,0,.812-.106.649.649,0,0,0,.411-.647,1.094,1.094,0,0,0-.278-.472,7.7,7.7,0,0,1-1.281-3.608l-.731-4.283c-.4-2.284-.769-4.764.311-6.817.779-1.475,2.209-2.513,3.03-3.964a1.925,1.925,0,0,0-1.083-3.046,5.477,5.477,0,0,0-4.1-.149,16.568,16.568,0,0,1-.406,3.068l-.286,1.652a21.02,21.02,0,0,1-.637,2.879,3.117,3.117,0,0,1-.512,1.043,2.7,2.7,0,0,1-.9.658,5.371,5.371,0,0,1-2.4.545,3.142,3.142,0,0,1-1.057-.16,4.516,4.516,0,0,1-1.456-1.026,2.381,2.381,0,0,1-.385-.415,2.5,2.5,0,0,1-.262-.63,12.818,12.818,0,0,1-.448-1.765c-.073-.458-.094-.923-.127-1.385A33.671,33.671,0,0,0,875.241,370Z" transform="translate(-683.731 -305.024)"/><path class="k" d="M888.1,486.75s-.559,7.414,2.938,8.674.42-6.156.42-6.156l-1.118-2.239Z" transform="translate(-698.014 -394.7)"/><path class="k" d="M923.687,486.75s.559,7.414-2.938,8.674-.42-6.156-.42-6.156l1.119-2.239Z" transform="translate(-721.705 -394.7)"/><path class="e" d="M871.549,380.428l-1.119,1.819s.979,6.3,1.119,7.414a14.583,14.583,0,0,0,.559,2.374s.139,3.358.139,4.616a14.089,14.089,0,0,0,.708,3.358,15.222,15.222,0,0,0,.708,3.5c.559,1.541,1.121,3.358,1.121,3.358s.708-1.959,3.5.979a1.7,1.7,0,0,0,0-2.379,37.015,37.015,0,0,1-.84-5.734c0-1.959-1.539-11.326-1.539-11.326S874.906,377.768,871.549,380.428Z" transform="translate(-684.536 -313.14)"/><path class="b" d="M870.379,379.848l-1.118,1.817s.979,6.3,1.118,7.416a14.7,14.7,0,0,0,.562,2.376s.146,3.358.146,4.62a14.031,14.031,0,0,0,.708,3.358,15.293,15.293,0,0,0,.708,3.5c.559,1.538,1.118,3.358,1.118,3.358s.708-1.959,3.5.979a1.694,1.694,0,0,0,0-2.379,37.007,37.007,0,0,1-.84-5.736c0-1.961-1.538-11.326-1.538-11.326S873.732,377.2,870.379,379.848Z" transform="translate(-683.642 -312.7)"/><path class="e" d="M928.412,374.509l.708.833a25.707,25.707,0,0,1-.993,10.779l-.559,5.458s-.979,4.615-1.121,5.736-.139,1.258-.418,1.678a.538.538,0,0,0,0,.708l-.84,3.079s-1.26-1.538-3.776.42a2.221,2.221,0,0,1-.139-2.1c.569-.979.559-1.4.42-1.678s.559-1.68.559-1.959.979-6.716.979-6.716.42-6.3.84-8.393a39.264,39.264,0,0,0,.208-6.194,2.371,2.371,0,0,1,4.011-1.767A1.093,1.093,0,0,1,928.412,374.509Z" transform="translate(-723.214 -308.342)"/><path class="b" d="M930.172,372.308l.708.833a25.752,25.752,0,0,1-.993,10.779l-.559,5.456s-.979,4.618-1.121,5.736-.139,1.26-.42,1.678a.545.545,0,0,0,0,.708l-.838,3.068s-1.26-1.539-3.776.42a2.215,2.215,0,0,1-.139-2.1c.569-.979.559-1.4.418-1.68s.562-1.678.562-1.959.979-6.716.979-6.716.42-6.3.838-8.393.142-8.393.142-8.393A3.236,3.236,0,0,1,930.172,372.308Z" transform="translate(-724.558 -306.42)"/><circle class="k" cx="5.597" cy="5.597" r="5.597" transform="translate(190.649 52.736)"/><path class="e" d="M902.916,307.239a3.917,3.917,0,0,1-7.336.1,6.943,6.943,0,0,1,4.417-.094A3.959,3.959,0,0,1,902.916,307.239Z" transform="translate(-703.751 -257.308)"/><path class="j" d="M886.66,308.439s-10.772-3.775-8.115,14.55c0,0,2.378,1.538,4.2.559,0,0-1.26-12.742,3.636-12.171s4.059,11.89,4.059,11.89,2.8.84,3.636-.708S893.8,305.919,886.66,308.439Z" transform="translate(-690.414 -258.218)"/><path class="e" d="M900.876,318.312c-3.36-.385-3.82,5.489-3.776,9.214.042-3.7.665-8.731,3.776-8.374,3.5.4,4.068,6.288,4.11,9.625C905.025,325.716,904.69,318.748,900.876,318.312Z" transform="translate(-704.911 -265.993)"/><path class="e" d="M878.555,351.856a38.025,38.025,0,0,1-.418-4.856,35.919,35.919,0,0,0,.418,5.687s2.379,1.539,4.2.559c0,0-.031-.3-.064-.809C880.88,353.371,878.555,351.856,878.555,351.856Z" transform="translate(-690.425 -287.926)"/><path class="e" d="M933.946,360.681c-.781,1.432-3.261.8-3.6.708-.016.519-.038.828-.038.828s2.8.84,3.636-.708a6.381,6.381,0,0,0,.236-2.409A4.366,4.366,0,0,1,933.946,360.681Z" transform="translate(-730.286 -297.171)"/></g></svg>